<svg height="512pt" viewBox="0 0 512 512" width="512pt" xmlns="http://www.w3.org/2000/svg"><path d="m476.691406 154.511719v331.003906h-441.382812v-331.003906c1.742187.625 3.546875 1.039062 5.386718 1.234375 21.007813 2.371094 38.753907-16.886719 38.753907-40.988282 0 22.761719 15.800781 41.195313 35.308593 41.195313 19.511719 0 35.3125-18.433594 35.3125-41.195313 0 22.761719 15.800782 41.195313 35.308594 41.195313 19.507813 0 35.3125-18.433594 35.3125-41.195313 0 22.761719 15.800782 41.195313 35.308594 41.195313s35.308594-18.433594 35.308594-41.195313c0 22.761719 15.804687 41.195313 35.3125 41.195313 19.507812 0 35.308594-18.433594 35.308594-41.195313 0 22.761719 15.800781 41.195313 35.3125 41.195313 19.507812 0 35.308593-18.433594 35.308593-41.195313 0 24.101563 17.746094 43.359376 38.753907 40.988282 1.839843-.195313 3.644531-.609375 5.386718-1.234375zm0 0" fill="#f3d55b"/><path d="m459.035156 154.511719v331.003906h-406.070312v-331.003906c1.59375.625 3.257812 1.039062 4.953125 1.234375 19.332031 2.371094 35.65625-16.886719 35.65625-40.988282 0 22.761719 14.535156 41.195313 32.484375 41.195313 17.949218 0 32.484375-18.433594 32.484375-41.195313 0 22.761719 14.539062 41.195313 32.484375 41.195313 17.949218 0 32.488281-18.433594 32.488281-41.195313 0 22.761719 14.535156 41.195313 32.484375 41.195313s32.484375-18.433594 32.484375-41.195313c0 22.761719 14.539063 41.195313 32.488281 41.195313 17.945313 0 32.484375-18.433594 32.484375-41.195313 0 22.761719 14.535157 41.195313 32.484375 41.195313 17.949219 0 32.484375-18.433594 32.484375-41.195313 0 24.101563 16.324219 43.359376 35.65625 40.988282 1.695313-.195313 3.359375-.609375 4.953125-1.234375zm0 0" fill="#f9eab0"/><path d="m512 476.691406v26.480469c-.015625 4.871094-3.957031 8.8125-8.828125 8.828125h-494.34375c-4.871094-.015625-8.8125-3.957031-8.828125-8.828125v-26.480469c.0273438-9.742187 7.917969-17.628906 17.65625-17.65625h476.6875c9.738281.027344 17.628906 7.914063 17.65625 17.65625zm0 0" fill="#24ae5f"/><path d="m485.515625 476.691406v26.480469c.226563 4.613281-3.300781 8.550781-7.914063 8.828125h-443.203124c-4.613282-.277344-8.140626-4.214844-7.914063-8.828125v-26.480469c-.449219-9.226562 6.605469-17.097656 15.828125-17.65625h427.375c9.222656.558594 16.277344 8.429688 15.828125 17.65625zm0 0" fill="#4fba6f"/><path d="m503.171875 112.285156v27.457032c.179687 16.464843-10.65625 31.023437-26.480469 35.574218-1.753906.539063-3.558594.894532-5.386718 1.058594-9.914063.976562-19.78125-2.285156-27.164063-8.976562-7.382813-6.691407-11.589844-16.191407-11.589844-26.15625 0 19.5-15.808593 35.308593-35.308593 35.308593-19.503907 0-35.3125-15.808593-35.3125-35.308593 0 19.5-15.808594 35.308593-35.308594 35.308593s-35.3125-15.808593-35.3125-35.308593c0 19.5-15.808594 35.308593-35.308594 35.308593s-35.308594-15.808593-35.308594-35.308593c0 19.5-15.8125 35.308593-35.3125 35.308593s-35.308594-15.808593-35.308594-35.308593c0 19.5-15.808593 35.308593-35.3125 35.308593-19.5 0-35.308593-15.808593-35.308593-35.308593 0 9.964843-4.207031 19.464843-11.589844 26.15625-7.382813 6.691406-17.25 9.953124-27.164063 8.976562-1.828124-.164062-3.632812-.519531-5.386718-1.058594-15.824219-4.550781-26.660156-19.109375-26.480469-35.574218v-27.457032c.015625-2.175781.4375-4.328125 1.234375-6.355468h491.875c.796875 2.027343 1.21875 4.179687 1.234375 6.355468zm0 0" fill="#db4e6c"/><path d="m128.53125 0h-14.921875c-10.464844.0234375-20.386719 4.675781-27.097656 12.710938l-73.625 88.277343c-1.222657 1.46875-2.179688 3.140625-2.824219 4.941407-.796875 2.027343-1.21875 4.179687-1.234375 6.355468v27.457032c-.179687 16.464843 10.65625 31.023437 26.480469 35.574218 1.753906.539063 3.558594.894532 5.386718 1.058594 9.914063.976562 19.78125-2.285156 27.164063-8.976562 7.382813-6.691407 11.589844-16.191407 11.589844-26.15625 0 19.5 15.808593 35.308593 35.308593 35.308593 19.503907 0 35.3125-15.808593 35.3125-35.308593 0 19.5 15.808594 35.308593 35.308594 35.308593s35.3125-15.808593 35.3125-35.308593c0 19.5 15.808594 35.308593 35.308594 35.308593s35.308594-15.808593 35.308594-35.308593c0 19.5 15.8125 35.308593 35.3125 35.308593s35.308594-15.808593 35.308594-35.308593c0 19.5 15.808593 35.308593 35.3125 35.308593 19.5 0 35.308593-15.808593 35.308593-35.308593 0 9.964843 4.207031 19.464843 11.589844 26.15625 7.382813 6.691406 17.25 9.953124 27.164063 8.976562 1.828124-.164062 3.632812-.519531 5.386718-1.058594 15.824219-4.550781 26.660156-19.109375 26.480469-35.574218v-27.457032c-.015625-2.175781-.4375-4.328125-1.234375-6.355468-.644531-1.800782-1.601562-3.472657-2.824219-4.941407l-73.625-88.277343c-6.710937-8.035157-16.632812-12.6875005-27.097656-12.710938zm0 0" fill="#c03a2b"/><path d="m501.9375 105.929688h-69.386719l-49.082031-105.929688h14.921875c10.464844.0234375 20.386719 4.675781 27.097656 12.710938l73.625 88.277343c1.222657 1.46875 2.179688 3.140625 2.824219 4.941407zm0 0" fill="#ecf0f1"/><path d="m383.46875 0 49.082031 105.929688h-68.675781l-29.398438-105.929688zm0 0" fill="#e64c3c"/><path d="m334.476562 0 29.398438 105.929688h-68.679688l-9.800781-105.929688zm0 0" fill="#ecf0f1"/><path d="m285.394531 0 9.800781 105.929688h-78.390624l9.800781-105.929688zm0 0" fill="#e64c3c"/><path d="m226.605469 0-9.800781 105.929688h-68.679688l29.398438-105.929688zm0 0" fill="#ecf0f1"/><path d="m177.523438 0-29.398438 105.929688h-68.675781l49.082031-105.929688zm0 0" fill="#e64c3c"/><path d="m128.53125 0-49.082031 105.929688h-69.386719c.644531-1.800782 1.601562-3.472657 2.824219-4.941407l73.625-88.277343c6.710937-8.035157 16.632812-12.6875005 27.097656-12.710938zm0 0" fill="#ecf0f1"/><path d="m176.550781 220.691406v88.273438h-105.929687v-88.273438c.011718-4.871094 3.957031-8.816406 8.828125-8.828125h88.273437c4.871094.011719 8.816406 3.957031 8.828125 8.828125zm0 0" fill="#90bae1"/><path d="m70.621094 308.964844h105.929687v150.070312h-105.929687zm0 0" fill="#e64c3c"/><path d="m123.585938 308.964844h52.964843v150.070312h-52.964843zm0 0" fill="#c03a2b"/><g fill="#805333"><path d="m264.828125 313.378906c0 12.1875-9.882813 22.070313-22.070313 22.070313s-22.066406-9.882813-22.066406-22.070313 9.878906-22.070312 22.066406-22.070312 22.070313 9.882812 22.070313 22.070312zm0 0"/><path d="m308.964844 251.585938c0 12.1875-9.878906 22.070312-22.066406 22.070312-12.191407 0-22.070313-9.882812-22.070313-22.070312s9.878906-22.070313 22.070313-22.070313c12.1875 0 22.066406 9.882813 22.066406 22.070313zm0 0"/><path d="m388.414062 251.585938c0 12.1875-9.882812 22.070312-22.070312 22.070312s-22.066406-9.882812-22.066406-22.070312 9.878906-22.070313 22.066406-22.070313 22.070312 9.882813 22.070312 22.070313zm0 0"/><path d="m432.550781 313.378906c0 12.1875-9.878906 22.070313-22.066406 22.070313-12.191406 0-22.070313-9.882813-22.070313-22.070313s9.878907-22.070312 22.070313-22.070312c12.1875 0 22.066406 9.882812 22.066406 22.070312zm0 0"/></g><path d="m123.585938 353.101562h-17.65625c-4.875 0-8.828126-3.949218-8.828126-8.824218s3.953126-8.828125 8.828126-8.828125h17.65625c4.875 0 8.828124 3.953125 8.828124 8.828125s-3.953124 8.824218-8.828124 8.824218zm0 0" fill="#802f34"/><path d="m326.621094 326.621094c29.25 0 52.964844 23.714844 52.964844 52.964844v8.828124c0 9.75-7.902344 17.65625-17.65625 17.65625h-70.621094c-9.75 0-17.652344-7.90625-17.652344-17.65625v-8.828124c0-29.25 23.710938-52.964844 52.964844-52.964844zm0 0" fill="#805333"/><path d="m167.722656 211.863281s-72.296875 37.074219-78.917968 97.101563h-18.183594v-88.273438c.011718-4.871094 3.957031-8.816406 8.828125-8.828125zm0 0" fill="#b0d3f0"/></svg>