<svg id="Capa_1" enable-background="new 0 0 512 512" height="512" viewBox="0 0 512 512" width="512" xmlns="http://www.w3.org/2000/svg"><g><path d="m56.88 404.277c-29.794-41.478-46.949-92.645-45.828-147.867 2.698-133.021 112.148-240.042 245.196-239.91 135.196.134 244.752 109.773 244.752 245 0 53.253-16.99 102.537-45.846 142.729-6.746 9.397-20.207 10.533-28.507 2.475-44.116-42.833-104.302-69.204-170.647-69.204s-126.531 26.371-170.647 69.203c-8.282 8.041-21.738 6.95-28.473-2.426z" fill="#49b4fa"/><path d="m456 364.17c0 29.43-12.31 57.518-33.943 77.47-39.764 36.674-91.697 60.348-149.057 64.279-3.423.235-66.794-14.777-125.816-40.711-55.546-24.406-91.184-79.61-91.184-140.281v-69.427h400z" fill="#54469b"/><path d="m343.333 255.5-77.833 233.5-26.867-39.4 64.7-194.1zm30 0-82.865 248.594c27.903-3.929 54.296-12.558 78.354-25.061l74.511-223.533z" fill="#915cb3"/><path d="m250 386.713h-160v28.576c0 9.935-12.32 14.512-18.844 7.019-5.362-6.158-10.422-12.588-15.156-19.264v-147.544h34v111.213h160z" fill="#c98001"/><path d="m140 341.713v20c0 2.761-2.239 5-5 5h-30c-2.761 0-5-2.239-5-5v-20c0-2.761 2.239-5 5-5h30c2.761 0 5 2.239 5 5zm85-5h-30c-2.761 0-5 2.239-5 5v20c0 2.761 2.239 5 5 5h30c2.761 0 5-2.239 5-5v-20c0-2.761-2.239-5-5-5zm-45 50h-30c-2.761 0-5 2.239-5 5v20c0 2.761 2.239 5 5 5h30c2.761 0 5-2.239 5-5v-20c0-2.761-2.239-5-5-5z" fill="#fff5f5"/><path d="m118.586 340.299-11.385-11.385c-1.26-1.26-.368-3.414 1.414-3.414h22.77c1.782 0 2.674 2.154 1.414 3.414l-11.385 11.385c-.781.781-2.047.781-2.828 0zm90 0-11.385-11.385c-1.26-1.26-.368-3.414 1.414-3.414h22.77c1.782 0 2.674 2.154 1.414 3.414l-11.385 11.385c-.781.781-2.047.781-2.828 0zm-45 50-11.385-11.385c-1.26-1.26-.368-3.414 1.414-3.414h22.77c1.782 0 2.674 2.154 1.414 3.414l-11.385 11.385c-.781.781-2.047.781-2.828 0z" fill="#fd4343"/><path d="m125 366.713h-10v-30h10zm90-30h-10v30h10zm-45 50h-10v30h10z" fill="#d73131"/><path d="m250 415.5v90.928c-74.53-1.791-140.814-36.865-184.56-90.928z" fill="#f5c02c"/><path d="m239 255.5h34v250.419c-5.617.385-11.286.581-17 .581s-11.383-.196-17-.581v-10.419h-55.808c-16.32-5.072-31.908-11.805-46.568-20h102.376v-20h-132.649c-15.144-11.699-28.88-25.131-40.911-40h24.56v20h149zm183 0v186.193c12.633-11.644 24.038-24.599 34-38.649v-147.544z" fill="#f19b0b"/><path d="m395.964 143.274c-.314 16.39-8.607 29.58-21.02 33.206-.067.02-.134.039-.2.058-40.967 11.875-84.862-3.962-118.744-37.97-33.882 34.008-77.777 49.845-118.744 37.97-.067-.019-.134-.039-.2-.058-12.413-3.626-20.706-16.816-21.02-33.206-.387-20.193 2.314-41.367 8.466-62.591s15.194-40.561 26.32-57.416c9.03-13.681 23.092-20.391 35.52-16.817.067.019.134.039.2.058 31.14 9.026 55.147 32.487 69.458 63.802 14.312-31.315 38.318-54.776 69.458-63.802.067-.019.134-.039.2-.058 12.428-3.574 26.489 3.136 35.52 16.817 11.125 16.855 20.168 36.192 26.32 57.416s8.853 42.398 8.466 62.591z" fill="#d73131"/><path d="m186.542 6.508c5.539 1.605 10.851 3.668 15.924 6.149-3.565 2.802-6.846 6.371-9.644 10.61-11.125 16.855-20.168 36.192-26.32 57.416s-8.853 42.399-8.466 62.591c.314 16.39 8.607 29.58 21.02 33.206.067.02.134.039.2.058 2.291.664 4.592 1.241 6.899 1.734-16.228 3.32-32.79 2.936-48.899-1.734-.067-.019-.134-.039-.2-.058-12.413-3.626-20.706-16.816-21.02-33.206-.387-20.193 2.314-41.367 8.466-62.591s15.194-40.561 26.32-57.416c9.03-13.681 23.092-20.391 35.52-16.817.066.019.133.038.2.058zm208.65 114.941c-18.5-1.862-36.796-8.64-53.746-19.491-30.406-19.466-41.694-58.72-26.372-91.411.076-.163.153-.325.23-.488-41.109 16.944-67.825 60.461-73.232 112.777 35.154 44.625 85.826 67.281 132.671 53.702.067-.019.134-.039.2-.058 12.413-3.626 20.706-16.816 21.02-33.206.138-7.165-.114-14.454-.771-21.825z" fill="#c92c2c"/><path d="m286 90.454c0 16.569-13.431 30-30 30s-30-13.431-30-30 13.431-30 30-30 30 13.431 30 30z" fill="#fd4343"/><path d="m285.467 84.794c.35 1.833.533 3.725.533 5.659 0 16.569-13.431 30-30 30s-30-13.431-30-30c0-14.876 10.828-27.224 25.033-29.591 2.646 13.863 14.833 24.341 29.467 24.341 1.692.001 3.351-.139 4.967-.409z" fill="#f52c2c"/><path d="m471 245.5v30c0 16.569-13.431 30-30 30h-10c-10.435 0-19.625-5.328-25-13.412-5.375 8.084-14.565 13.412-25 13.412h-10c-10.435 0-19.625-5.328-25-13.412-5.375 8.084-14.565 13.412-25 13.412h-10c-10.435 0-19.625-5.328-25-13.412-5.375 8.084-14.565 13.412-25 13.412h-10c-10.435 0-19.625-5.328-25-13.412-5.375 8.084-14.565 13.412-25 13.412h-10c-10.435 0-19.625-5.328-25-13.412-5.375 8.084-14.565 13.412-25 13.412h-10c-10.435 0-19.625-5.328-25-13.412-5.375 8.084-14.565 13.412-25 13.412h-10c-16.569 0-30-13.431-30-30v-30z" fill="#f52c2c"/><path d="m166 292.088c-5.375 8.084-14.565 13.412-25 13.412h-10c-16.569 0-30-13.431-30-30v-30h60v30c0 6.133 1.841 11.837 5 16.588zm120 0c-5.375 8.084-14.565 13.412-25 13.412h-10c-16.569 0-30-13.431-30-30v-30h60v30c0 6.133 1.841 11.837 5 16.588zm120 0c-5.375 8.084-14.565 13.412-25 13.412h-10c-16.569 0-30-13.431-30-30v-30h60v30c0 6.133 1.841 11.837 5 16.588z" fill="#f9eecf"/><path d="m166 292.088c-4.339 6.526-11.165 11.256-19.125 12.836-13.756-2.731-24.125-14.866-24.125-29.424v-30h38.25v30c0 6.134 1.841 11.837 5 16.588zm120 0c-4.339 6.526-11.165 11.256-19.125 12.836-13.756-2.731-24.125-14.866-24.125-29.424v-30h38.25v30c0 6.134 1.841 11.837 5 16.588zm115-16.588v-30h-38.25v30c0 14.558 10.369 26.693 24.125 29.424 7.96-1.58 14.786-6.31 19.125-12.836-3.159-4.751-5-10.454-5-16.588z" fill="#fff5f5"/><path d="m101 275.5c0 6.134 1.841 11.837 5 16.588-4.339 6.526-11.165 11.256-19.125 12.836-13.756-2.731-24.125-14.866-24.125-29.424v-30h38.25zm321.75-30v30c0 14.558 10.369 26.693 24.125 29.424 13.756-2.731 24.125-14.866 24.125-29.424v-30zm-201.75 0h-38.25v30c0 14.558 10.369 26.693 24.125 29.424 7.96-1.58 14.786-6.31 19.125-12.836-3.159-4.751-5-10.455-5-16.588zm120 0h-38.25v30c0 14.558 10.369 26.693 24.125 29.424 7.96-1.58 14.786-6.31 19.125-12.836-3.159-4.751-5-10.455-5-16.588z" fill="#fd4343"/><path d="m164.419 102.697-73.419 142.803h-60l73.419-142.803c3.427-6.665 10.292-10.855 17.787-10.855h60c-7.495-.001-14.36 4.19-17.787 10.855z" fill="#f19b0b"/><path d="m405.626 102.515 75.374 142.985h-401l73.419-142.803c3.427-6.665 10.292-10.855 17.787-10.855h40.521l6.023 3.415h76.5l6.111-3.415h87.573c7.421-.001 14.232 4.108 17.692 10.673z" fill="#f5c02c"/><path d="m460.75 207.085-19.75 38.415h-30l34.563-67.226zm-151.35-115.244-79 153.659h30l79-153.659zm-97.269 0h-23.131l-79 153.659h30l75.859-147.55c1.434-2.789-.591-6.109-3.728-6.109zm45.21 0c-4.999 0-9.578 2.795-11.864 7.241l-75.277 146.418h30l69.006-134.219c4.564-8.878-1.882-19.44-11.865-19.44zm157.745 28.619-64.286 125.04h30l49.474-96.229zm-27.152-28.619h-18.334l-79 153.659h30l77.555-150.849c-3.038-1.806-6.555-2.81-10.221-2.81z" fill="#f3d373"/><path d="m502 255.5h-492c-5.523 0-10-4.477-10-10v-10c0-5.523 4.477-10 10-10h492c5.523 0 10 4.477 10 10v10c0 5.523-4.477 10-10 10z" fill="#f19b0b"/><path d="m90.25 255.5h-80.25c-5.523 0-10-4.477-10-10v-10c0-5.523 4.477-10 10-10h80.25c-5.523 0-10 4.477-10 10v10c0 5.523 4.477 10 10 10z" fill="#d98800"/><path d="m259.228 91.841-49.919 95.045c-1.276 2.429-4.563 2.882-6.448.888l-30.939-32.726c-1.298-1.373-1.458-3.467-.385-5.021l40.19-58.185h47.501z" fill="#d73131"/><path d="m300.361 91.841 40.106 58.186c1.071 1.554.91 3.646-.387 5.018l-30.939 32.726c-1.886 1.995-5.174 1.541-6.449-.89l-49.832-95.04z" fill="#fd4343"/><path d="m380 425.5h-70c-5.523 0-10-4.477-10-10v-30c0-5.523 4.477-10 10-10h70c5.523 0 10 4.477 10 10v30c0 5.523-4.477 10-10 10z" fill="#f3d373"/><path d="m380 425.5h-50c-5.523 0-10-4.477-10-10v-30c0-5.523 4.477-10 10-10h50c5.523 0 10 4.477 10 10v30c0 5.523-4.477 10-10 10z" fill="#f7e6b0"/><path d="m364.25 408h-38.5c-3.866 0-7-3.134-7-7v-1c0-3.866 3.134-7 7-7h38.5c3.866 0 7 3.134 7 7v1c0 3.866-3.134 7-7 7z" fill="#f5b65d"/></g></svg>