<svg id="Capa_1" enable-background="new 0 0 512 512" height="512" viewBox="0 0 512 512" width="512" xmlns="http://www.w3.org/2000/svg"><g><g><path d="m325.527 12.687h-209.732c-21.455 0-38.848 17.393-38.848 38.848v87.547h287.427v-87.547c.001-21.455-17.392-38.848-38.847-38.848z" fill="#dedede"/><path d="m61.228 438.108h389.545l33.139-52.561v-29.067l-18.802-26.386 16.659-26.386c-3.914-13.631-13.024-25.452-25.696-32.653l-9.12-5.176c-11.175-6.351-19.16-17.124-21.988-29.669l-18.729-83.214c-4.413-19.58-21.792-33.485-41.861-33.485h-287.423c-23.7 0-42.908 19.208-42.908 42.908v223.13z" fill="#ff748f"/><path d="m389.283 255.907-21.235-94.316c-.389-1.73-1.9-2.938-3.673-2.938h-68.237c-2.076 0-3.766 1.689-3.766 3.766v93.489h96.911z" fill="#5c586f"/><path d="m483.912 318.885v37.595h-19.13c-10.196 0-18.475-8.269-18.475-18.465v-15.842c0-10.196 8.278-18.465 18.475-18.465h16.987c1.409 4.873 2.143 9.971 2.143 15.177z" fill="#f8e86a"/><path d="m490.556 385.548h-25.839c-7.701 0-13.944 6.243-13.944 13.944v38.616h39.783c7.701 0 13.944-6.243 13.944-13.944v-24.672c0-7.701-6.243-13.944-13.944-13.944z" fill="#c7c5cb"/><path d="m104.701 246.132c0-45.648 10.875-88.7 30.111-126.622h-57.86c-23.7 0-42.908 19.208-42.908 42.908v223.13l27.184 52.561h119.703c-47.177-49.657-76.23-117.35-76.23-191.977z" fill="#fd5f7e"/><path d="m21.444 385.548h25.839c7.701 0 13.944 6.243 13.944 13.944v38.616h-39.783c-7.701 0-13.944-6.243-13.944-13.944v-24.672c0-7.701 6.243-13.944 13.944-13.944z" fill="#c7c5cb"/><circle cx="157.505" cy="438.034" fill="#5c586f" r="61.279"/><circle cx="157.505" cy="438.034" fill="#c7c5cb" r="24.645"/><circle cx="355.598" cy="438.034" fill="#5c586f" r="61.279"/><circle cx="355.598" cy="438.034" fill="#c7c5cb" r="24.645"/><path d="m83.063 189.064h158.673v89.745h-158.673z" fill="#f8e86a"/><path d="m104.701 246.132c0-19.567 2.01-38.653 5.807-57.068h-27.445v89.746h23.535c-1.24-10.719-1.897-21.62-1.897-32.678z" fill="#f8d070"/><path d="m89.542 162.567c-6.956 0-12.595 5.639-12.595 12.595v7.401c0 15.667 12.284 28.911 27.945 29.34 16.249.446 29.561-12.594 29.561-28.742v-20.593h-44.911z" fill="#5bd6fd"/><path d="m191.961 162.567h-57.507v19.995c0 15.667 12.284 28.911 27.945 29.34 16.249.446 29.561-12.594 29.561-28.742v-20.593z" fill="#fff"/><path d="m236.873 162.567h-44.912v19.995c0 15.667 12.284 28.911 27.945 29.34 16.249.446 29.561-12.594 29.561-28.742v-7.999c.001-6.955-5.638-12.594-12.594-12.594z" fill="#5bd6fd"/><path d="m244.81 269.013h-163.205c-7.824 0-14.167 6.343-14.167 14.167v12.851c0 7.824 6.343 14.167 14.167 14.167h163.205c7.824 0 14.167-6.343 14.167-14.167v-12.851c.001-7.824-6.342-14.167-14.167-14.167z" fill="#5bd6fd"/><path d="m336.57 298.38h-25.17c-10.509 0-19.028 8.519-19.028 19.028 0 6.827 5.535 12.362 12.362 12.362h38.503c6.827 0 12.362-5.535 12.362-12.362-.001-10.509-8.52-19.028-19.029-19.028z" fill="#c7c5cb"/><g fill="#00c4fc"><path d="m105.634 269.013h-24.029c-7.824 0-14.167 6.343-14.167 14.167v12.851c0 7.824 6.343 14.167 14.167 14.167h30.441c-3.118-13.377-5.281-27.131-6.412-41.185z"/><path d="m106.773 211.887c2.059-16.967 5.632-33.453 10.569-49.32h-27.8c-6.956 0-12.595 5.639-12.595 12.595v7.401c0 15.667 12.284 28.911 27.945 29.34.633.017 1.259.006 1.881-.016z"/></g></g><g><path d="m361.388 166.152 5.102 22.662c.91 4.041 4.922 6.581 8.965 5.669 4.041-.91 6.579-4.923 5.669-8.964l-5.758-25.574c-1.165-5.177-5.684-8.792-10.99-8.792h-68.237c-6.212 0-11.266 5.054-11.266 11.266v93.488c0 4.142 3.358 7.5 7.5 7.5h96.911c4.802 0 8.373-4.46 7.316-9.147l-8.961-39.8c-.91-4.041-4.923-6.582-8.964-5.669-4.041.91-6.579 4.923-5.67 8.964l6.901 30.653h-80.034v-82.254h61.516z"/><path d="m157.505 405.889c-17.725 0-32.145 14.42-32.145 32.145s14.42 32.145 32.145 32.145 32.145-14.42 32.145-32.145-14.421-32.145-32.145-32.145zm0 49.29c-9.454 0-17.145-7.691-17.145-17.145s7.691-17.145 17.145-17.145 17.145 7.691 17.145 17.145-7.691 17.145-17.145 17.145z"/><path d="m355.599 405.889c-17.725 0-32.146 14.42-32.146 32.145s14.42 32.145 32.146 32.145c17.725 0 32.145-14.42 32.145-32.145s-14.421-32.145-32.145-32.145zm0 49.29c-9.454 0-17.146-7.691-17.146-17.145s7.691-17.145 17.146-17.145c9.453 0 17.145 7.691 17.145 17.145s-7.692 17.145-17.145 17.145z"/><path d="m304.734 337.27h38.502c10.952 0 19.862-8.91 19.862-19.862 0-14.628-11.901-26.528-26.528-26.528h-25.17c-14.628 0-26.528 11.9-26.528 26.528 0 10.951 8.91 19.862 19.862 19.862zm6.666-31.391h25.17c6.356 0 11.528 5.171 11.528 11.528 0 2.681-2.181 4.862-4.862 4.862h-38.502c-2.681 0-4.862-2.181-4.862-4.862 0-6.356 5.172-11.528 11.528-11.528z"/><path d="m141.822 51.766c4.142 0 7.5-3.358 7.5-7.5s-3.358-7.5-7.5-7.5h-17.83c-4.142 0-7.5 3.358-7.5 7.5v43.99c0 4.142 3.358 7.5 7.5 7.5s7.5-3.358 7.5-7.5v-14.912h8.913c4.142 0 7.5-3.358 7.5-7.5s-3.358-7.5-7.5-7.5h-8.913v-6.579h10.33z"/><path d="m314.66 37.752h-12.18c-4.053 0-7.5 3.254-7.5 7.544v.001c.047 44.589-.107 42.234.117 43.536.304 3.949 3.588 6.923 7.471 6.923 1.362 0 9.659-.045 12.58-.096 14.126-.247 24.379-12.403 24.379-28.906-.001-17.076-10.226-29.002-24.867-29.002zm.226 42.91c-1.161.021-2.967.038-4.843.052-.045-14.782-.019-10.001-.049-27.962h4.666c9.155 0 9.866 10.717 9.866 14.002 0 6.839-2.98 13.792-9.64 13.908z"/><path d="m186.202 36.441c-16.354 0-29.658 13.304-29.658 29.658 0 16.353 13.304 29.657 29.658 29.657 16.353 0 29.657-13.304 29.657-29.657 0-16.354-13.304-29.658-29.657-29.658zm0 44.315c-8.082 0-14.658-6.575-14.658-14.657 0-8.083 6.576-14.658 14.658-14.658s14.657 6.575 14.657 14.658c0 8.082-6.575 14.657-14.657 14.657z"/><path d="m255.152 36.441c-16.353 0-29.657 13.304-29.657 29.658 0 16.353 13.305 29.657 29.657 29.657 16.354 0 29.657-13.304 29.657-29.657.001-16.354-13.303-29.658-29.657-29.658zm0 44.315c-8.082 0-14.657-6.575-14.657-14.657 0-8.083 6.575-14.658 14.657-14.658s14.657 6.575 14.657 14.658c.001 8.082-6.575 14.657-14.657 14.657z"/><path d="m491.412 378.091v-21.612-37.595c0-5.852-.819-11.653-2.434-17.242 0-.001 0-.003-.001-.005 0-.002-.001-.003-.001-.005-.001-.003-.001-.006-.002-.009 0-.002-.001-.004-.002-.006-8.805-30.624-34.406-39.199-38.313-42.261-9.32-5.297-16.018-14.335-18.376-24.795l-18.729-83.216c-4.66-20.676-21.28-35.774-41.678-38.778v-61.032c0-25.556-20.792-46.347-46.348-46.347h-209.733c-25.556 0-46.348 20.791-46.348 46.347v61.036c-24.248 3.635-42.903 24.602-42.903 49.847v139.195c0 4.142 3.357 7.5 7.5 7.5 4.142 0 7.5-3.358 7.5-7.5v-139.195c0-19.524 15.884-35.408 35.408-35.408h287.423c16.672 0 30.877 11.364 34.544 27.632l18.729 83.216c3.286 14.573 12.616 27.162 25.603 34.542 5.318 3.679 18.765 7.831 27.407 23.807h-5.877c-14.322 0-25.975 11.648-25.975 25.965v15.842c0 14.317 11.652 25.965 25.975 25.965h11.631v14.068h-11.695c-11.825 0-21.444 9.62-21.444 21.444v31.116h-19.293c-3.859-35.649-34.17-61.354-68.381-61.354-35.005 0-64.615 26.507-68.382 61.354h-61.331c-3.753-34.885-33.425-61.354-68.381-61.354-34.957 0-64.635 26.49-68.381 61.354h-20.396v-31.116c0-11.845-9.637-21.444-21.444-21.444h-5.739v-46.459c0-4.142-3.358-7.5-7.5-7.5-4.143 0-7.5 3.358-7.5 7.5v46.459h-5.1c-11.825.001-21.445 9.621-21.445 21.445v24.672c0 11.824 9.62 21.444 21.444 21.444h67.708c3.784 34.373 32.989 61.204 68.353 61.204s64.569-26.832 68.353-61.204h61.388c3.784 34.373 32.989 61.204 68.353 61.204s64.568-26.832 68.353-61.204h26.821 39.783c11.824 0 21.444-9.62 21.444-21.444v-24.672c0-11.535-9.162-20.946-20.588-21.401zm-406.965-266.081v-60.475c0-17.285 14.063-31.347 31.348-31.347h209.732c17.285 0 31.348 14.063 31.348 31.347v60.475zm-30.719 318.598h-32.284c-3.554 0-6.444-2.891-6.444-6.444v-24.672c0-3.553 2.891-6.444 6.444-6.444h25.839c3.485 0 6.444 2.848 6.444 6.444v31.116zm103.777 61.205c-29.633 0-53.744-24.092-53.777-53.718 0-.025 0-.054-.001-.082.027-30.188 24.629-53.757 53.778-53.757 29.4 0 53.778 23.88 53.778 53.751 0 .035-.001.073-.001.103v.001c-.041 29.617-24.148 53.702-53.777 53.702zm198.094 0c-29.634 0-53.745-24.092-53.778-53.718 0-.025 0-.054-.001-.082.027-30.076 24.549-53.757 53.779-53.757 29.146 0 53.748 23.609 53.778 53.751 0 .035-.001.073-.001.103v.001c-.042 29.617-24.149 53.702-53.777 53.702zm109.182-142.834c-6.051 0-10.975-4.919-10.975-10.965v-15.842c0-6.046 4.923-10.965 10.975-10.965h11.006c.415 2.529.625 5.096.625 7.677v30.095zm32.219 75.185c0 3.553-2.891 6.444-6.444 6.444h-32.283v-31.116c0-3.553 2.891-6.444 6.444-6.444h19.195 6.644c3.554 0 6.444 2.891 6.444 6.444z"/><path d="m89.542 155.066c-11.081 0-20.095 9.015-20.095 20.095v7.401c0 7.473 2.259 14.48 6.116 20.337v59.478c-9.016 2.623-15.625 10.953-15.625 20.804v12.852c0 11.947 9.72 21.667 21.667 21.667h163.205c11.947 0 21.667-9.72 21.667-21.667v-12.853c0-10.431-7.409-19.162-17.241-21.211v-56.435c5.01-6.354 7.731-14.137 7.731-22.374v-7.999c0-11.08-9.014-20.095-20.095-20.095zm161.936 128.114v12.852c0 3.676-2.991 6.667-6.667 6.667h-163.206c-3.677 0-6.667-2.991-6.667-6.667v-12.852c0-3.676 2.991-6.667 6.667-6.667h163.205c3.677 0 6.668 2.991 6.668 6.667zm-160.915-67.129c15.147 7.104 33.608 2.718 43.997-10.92 14.716 19.32 43.251 18.716 57.507 0 10.148 13.322 27.502 17.582 42.169 11.688v44.694h-143.673zm151.405-40.89v7.999c0 12.334-10.243 21.557-21.855 21.245-.001 0-.001 0-.002 0-11.475-.314-20.649-10.227-20.649-21.843v-12.496h37.412c2.809 0 5.094 2.286 5.094 5.095zm-57.507 7.999c0 12.185-10.109 21.56-21.855 21.245-11.488-.314-20.651-10.238-20.651-21.843v-12.496h42.506zm-100.013-7.999c0-2.809 2.286-5.095 5.095-5.095h37.412v13.094c0 12.057-9.989 21.563-21.855 21.245 0 0 0 0-.001 0-11.334-.31-20.651-10.068-20.651-21.843z"/></g></g></svg>