<svg enable-background="new 0 0 100 100" height="512" viewBox="0 0 100 100" width="512" xmlns="http://www.w3.org/2000/svg"><path d="m9.778166 29.480335h80.443634v65.517967h-80.443634z" fill="#dd584d"/><path d="m9.778166 87.477303h80.443634v7.521002h-80.443634z" fill="#cd5248"/><path d="m18.39143 53.859497h24.949564v41.138809h-24.949564z" fill="#d6b24e"/><path d="m40.8674316 56.5030556v38.4969444h-1.9616279v-36.5353165h-16.0755539v36.5353165h-1.961628v-38.4969444z" fill="#fed35b"/><circle cx="37.095" cy="74.429" fill="#ededed" r="1.323"/><path d="m50.330616 41.262341h32.901569v33.481583h-32.901569z" fill="#4288b9"/><g fill="#ededed" opacity=".15"><path d="m73.5195847 41.2611694-23.1864548 23.1865769v4.9433365l28.1297378-28.1299134z"/><path d="m80.7579956 41.2611694-30.4248657 30.4248658v2.471672l32.8965378-32.8965378z"/></g><path d="m83.9105148 40.5839882h-16.4507827-1.3566437-16.450779v34.8385277h16.450779 1.3566437 16.4507828v-34.8385277zm-1.3566436 1.3567619v15.3841209h-15.0941391v-15.3841209zm-16.4507828 0v15.3841209h-15.0941391v-15.3841209zm-15.0941391 32.1250077v-15.3841248h15.0941391v15.3841248zm16.4507828 0v-15.3841248h15.0941391v15.3841248z" fill="#ededed"/><path d="m47.544537 74.065636h38.473724v3.993085h-38.473724z" fill="#dbd8dd"/><path d="m20.855188 5h57.594242v15.411693h-57.594242z" fill="#d6b250"/><g fill="#344d5b"><path d="m27.628006 8.8447952h1.5278473v4.8062449c0 .6284027-.0552444 1.1117897-.1657333 1.45016-.148468.4419537-.4177837.7967243-.8079453 1.0643139s-.904623.4013824-1.5433846.4013824c-.7492504 0-1.325861-.2097549-1.7298336-.6292648-.4039726-.4195108-.607687-1.0349655-.6111393-1.846364l1.4449806-.1657333c.0172634.4350481.0811405.7423439.1916294.9218874.1657314.272769.4177837.409153.7561531.409153.3418236 0 .5835171-.0975409.7250805-.2926216.1415634-.1950817.2123451-.5999174.2123451-1.214509v-4.9046489z"/><path d="m30.7872829 16.437418v-7.5926228h5.6297283v1.2844276h-4.0967026v1.6832218h3.8118515v1.2792482h-3.8118515v2.0664778h4.2417183v1.2792473h-5.774744z"/><path d="m38.9392548 16.437418-1.8127022-7.5926228h1.5692825l1.1445885 5.2153969 1.3880119-5.2153969h1.8230591l1.3310394 5.303443 1.1653061-5.303443h1.5433846l-1.8437767 7.5926228h-1.6262512l-1.5123062-5.6763391-1.5071336 5.6763391z"/><path d="m47.8732758 16.437418v-7.5926228h5.6297264v1.2844276h-4.0967026v1.6832218h3.8118515v1.2792482h-3.8118515v2.0664778h4.2417183v1.2792473h-5.7747421z"/><path d="m54.989418 16.437418v-7.5304728h1.5330238v6.2512255h3.8118515v1.2792473z"/><path d="m61.4322701 16.437418v-7.5926228h3.2266045c.8114014 0 1.4009628.0681925 1.7686768.2045765.3677216.136384.6620712.3789406.883049.7276697.2209702.3487291.331459.7475224.331459 1.1963816 0 .569706-.1674576 1.0401449-.5023727 1.4113169-.3349228.371172-.8355713.6050959-1.5019531.7017736.3314667.1933546.6050949.4056997.8208923.6370344s.5066986.6422138.8726883 1.2326365l.927063 1.4812336h-1.8334122l-1.1083374-1.6521454c-.3936157-.5904226-.6629333-.9624577-.8079453-1.116106-.1450195-.1536474-.2986679-.2589569-.4609451-.3159275-.162281-.0569706-.4195099-.0854559-.7716904-.0854559h-.3107491v3.1696348zm1.5330276-4.3815537h1.1342278c.7354431 0 1.1946564-.0310755 1.377655-.0932245.1829987-.06215.3262863-.1691856.4298706-.3211069s.1553726-.3418236.1553726-.569706c0-.2555046-.0681915-.4618073-.2045746-.6189079s-.3288803-.2563667-.5774765-.2978001c-.1242981-.0172644-.4972-.0258961-1.1186905-.0258961h-1.1963844z"/><path d="m70.6874008 16.437418v-3.19553l-2.7812042-4.3970928h1.7971649l1.7868042 3.0039034 1.7505493-3.0039034h1.7660904l-2.7915573 4.4074507v3.1851721z"/></g><path d="m91.8012619 27.5920353v-7.1803417h-83.6025248v7.1803417h-2.376306l3.9557347 4.0659714h80.443636l3.9557724-4.0659714z" fill="#cd5248"/><path d="m5.822429 24.477978h88.35511v3.113935h-88.35511z" fill="#dd584d"/></svg>